<?xml version="1.0" encoding="utf-8"?>
<!-- Svg Vector Icons : http://www.onlinewebfonts.com/icon -->
<!DOCTYPE svg PUBLIC "-//W3C//DTD SVG 1.1//EN" "http://www.w3.org/Graphics/SVG/1.1/DTD/svg11.dtd">
<svg version="1.1" xmlns="http://www.w3.org/2000/svg" xmlns:xlink="http://www.w3.org/1999/xlink" x="0px" y="0px" viewBox="0 0 1000 1000" enable-background="new 0 0 1000 1000" xml:space="preserve">
<metadata> Svg Vector Icons : http://www.onlinewebfonts.com/icon </metadata>
<g><g transform="translate(0.000000,511.000000) scale(0.100000,-0.100000)"><path d="M8179.6,4065.1c-47.9-17.3-111.2-47.9-143.8-70.9c-30.7-21.1-1073.7-1052.6-2314.2-2293.1L3463.1-553.6l-742,740.1c-845.5,839.8-830.2,828.3-1098.6,830.2c-262.7,1.9-272.3-3.8-895.4-626.9C104-233.5,98.2-243,100.2-505.7c0-128.5,9.6-182.1,46-258.8c65.2-140,2916.2-2992.9,3058.1-3060c76.7-36.4,126.5-46,258.8-46c141.9,0,176.4,7.7,268.4,55.6c86.3,44.1,636.5,582.8,3054.2,2998.6c1622,1622,2973.7,2981.4,3004.4,3025.5c122.7,172.6,143.8,418,57.5,611.6c-65.2,141.9-1081.4,1160-1217.5,1219.4C8503.6,4095.8,8296.5,4107.3,8179.6,4065.1z"/></g></g>
</svg>