<?xml version="1.0" encoding="utf-8"?>
<!-- Svg Vector Icons : http://www.onlinewebfonts.com/icon -->
<!DOCTYPE svg PUBLIC "-//W3C//DTD SVG 1.1//EN" "http://www.w3.org/Graphics/SVG/1.1/DTD/svg11.dtd">
<svg version="1.1" xmlns="http://www.w3.org/2000/svg" xmlns:xlink="http://www.w3.org/1999/xlink" x="0px" y="0px" viewBox="0 0 1000 1000" enable-background="new 0 0 1000 1000" xml:space="preserve">
<metadata> Svg Vector Icons : http://www.onlinewebfonts.com/icon </metadata>
<g><g transform="matrix(1 0 0 -1 0 800)"><path d="M499.3,789.3C634.4,789.3,750,741.5,846,646c96-95.5,144-210.8,144-346c0-135.2-48-250.5-144-346c-96-95.5-211.6-143.3-346.7-143.3S248.8-141.5,153.3-46C57.8,49.5,10,164.8,10,300c0,135.2,47.8,250.5,143.3,346C248.8,741.5,364.1,789.3,499.3,789.3z M193.7,300c0-84.2,29.9-156.2,89.6-216C343,24.3,415-5.6,499.3-5.6c49,0,96,11.8,141,35.3L228.9,441C205.4,396,193.7,349,193.7,300z M769.6,159c24.5,47,36.7,94,36.7,141c0,84.2-30.1,156.2-90.4,216c-60.2,59.8-132.5,89.6-216.7,89.6c-48,0-94.5-11.8-139.6-35.3L769.6,159z"/></g></g>
</svg>