<?xml version="1.0" encoding="utf-8"?>
<!-- Svg Vector Icons : http://www.onlinewebfonts.com/icon -->
<!DOCTYPE svg PUBLIC "-//W3C//DTD SVG 1.1//EN" "http://www.w3.org/Graphics/SVG/1.1/DTD/svg11.dtd">
<svg version="1.1" xmlns="http://www.w3.org/2000/svg" xmlns:xlink="http://www.w3.org/1999/xlink" x="0px" y="0px" viewBox="0 0 1000 1000" enable-background="new 0 0 1000 1000" xml:space="preserve">
<metadata> Svg Vector Icons : http://www.onlinewebfonts.com/icon </metadata>
<g><path d="M319.1,250.2l-67.9,67.9l174.2,174.2L251.2,666.5l67.9,67.9l174.2-174.2l174.2,174.2l67.9-67.9L561.3,492.3l174.2-174.2l-67.9-67.9L493.3,424.4L319.1,250.2z M500,85.6c57.4,0,111.2,10.8,161.3,32.5c50.1,21.7,93.9,51.2,131.6,88.5c37.6,37.3,67.3,81.2,89,131.6c21.7,50.4,32.5,104.3,32.5,161.7c0,56.8-10.8,110.4-32.5,160.8c-21.7,50.4-51.4,94.3-89,131.6c-37.6,37.3-81.5,67-131.6,89c-50.1,22-103.8,33-161.3,33s-111.2-11-161.3-33c-50.1-22-93.9-51.7-131.6-89c-37.6-37.3-67.3-81.2-89-131.6c-21.7-50.4-32.5-104-32.5-160.8c0-57.4,10.8-111.3,32.5-161.7c21.7-50.4,51.4-94.3,89-131.6c37.6-37.3,81.5-66.8,131.6-88.5C388.8,96.5,442.6,85.6,500,85.6L500,85.6L500,85.6z M500,10c-67.6,0-131.3,12.8-190.9,38.3c-59.7,25.5-111.7,60.5-156,104.8c-44.3,44.3-79.3,96.3-104.8,156C22.8,368.7,10,432.4,10,500c0,67.6,12.8,131.1,38.3,190.4c25.5,59.3,60.5,111.2,104.8,155.5c44.3,44.3,96.3,79.4,156,105.3C368.7,977.1,432.4,990,500,990s131.3-12.9,190.9-38.8c59.7-25.8,111.7-60.9,156-105.3c44.3-44.3,79.3-96.2,104.8-155.5C977.2,631.1,990,567.6,990,500c0-67.6-12.8-131.3-38.3-190.9c-25.5-59.7-60.5-111.7-104.8-156c-44.3-44.3-96.3-79.3-156-104.8C631.3,22.8,567.6,10,500,10L500,10L500,10z"/></g>
</svg>