<?xml version="1.0" encoding="utf-8"?>
<!-- Svg Vector Icons : http://www.onlinewebfonts.com/icon -->
<!DOCTYPE svg PUBLIC "-//W3C//DTD SVG 1.1//EN" "http://www.w3.org/Graphics/SVG/1.1/DTD/svg11.dtd">
<svg version="1.1" xmlns="http://www.w3.org/2000/svg" xmlns:xlink="http://www.w3.org/1999/xlink" x="0px" y="0px" viewBox="0 0 1000 1000" enable-background="new 0 0 1000 1000" xml:space="preserve">
<metadata> Svg Vector Icons : http://www.onlinewebfonts.com/icon </metadata>
<g><g><g><path d="M30.2,222.5h439.1l88.5-92.2c0,0-406,0-472.7,0c-66.7,0-55.6,48.1-55.6,48.1L30.2,222.5z"/><path d="M952.8,124.8H671.8c-10.7,0-20.8,4.6-27.9,12.6L534.4,261.3H47.2c-20.6,0-37.2,16.6-37.2,37.2v539.4c0,20.6,16.7,37.2,37.2,37.2h905.5c20.5,0,37.2-16.7,37.2-37.2V162.1C990,141.6,973.3,124.8,952.8,124.8z M915.4,800.6h-831V335.7h466.7c10.7,0,20.8-4.6,27.9-12.6l109.5-123.9h226.9V800.6L915.4,800.6z"/></g></g><g></g><g></g><g></g><g></g><g></g><g></g><g></g><g></g><g></g><g></g><g></g><g></g><g></g><g></g><g></g></g>
</svg>