<?xml version="1.0" encoding="utf-8"?>
<!-- Svg Vector Icons : http://www.onlinewebfonts.com/icon -->
<!DOCTYPE svg PUBLIC "-//W3C//DTD SVG 1.1//EN" "http://www.w3.org/Graphics/SVG/1.1/DTD/svg11.dtd">
<svg version="1.1" xmlns="http://www.w3.org/2000/svg" xmlns:xlink="http://www.w3.org/1999/xlink" x="0px" y="0px" viewBox="0 0 1000 1000" enable-background="new 0 0 1000 1000" xml:space="preserve">
<metadata> Svg Vector Icons : http://www.onlinewebfonts.com/icon </metadata>
<g><g><path d="M941.6,288.9L941.6,288.9H789.5V122.2H618.3l-16.9,46.4c-3.2,8.8-11.6,14.7-21,14.7H10c0,0,0.7,619.1,0.7,623.8c0,32.8,22,60.5,53.2,68.4c4.2,1.3,8.6,2,13.1,2.1c1.3,0.1,2.7,0.2,4.3,0.2c1.6,0,720.8-0.2,720.8-0.2c21.6,0,40.6-14.4,46.5-35.2l138.9-490.2c1.5-4.7,2.3-9.7,2.3-14.9C990,310.5,968.4,288.9,941.6,288.9z M802.2,829.2H83c-0.5,0.1-1.1,0.2-1.6,0.2c-0.5,0.1-28.6,1.3-22.3-22.3l20.4-68.9l113.3-401h748.8L802.2,829.2z"/></g><g></g><g></g><g></g><g></g><g></g><g></g><g></g><g></g><g></g><g></g><g></g><g></g><g></g><g></g><g></g></g>
</svg>