<?xml version="1.0" encoding="utf-8"?>
<!-- Svg Vector Icons : http://www.onlinewebfonts.com/icon -->
<!DOCTYPE svg PUBLIC "-//W3C//DTD SVG 1.1//EN" "http://www.w3.org/Graphics/SVG/1.1/DTD/svg11.dtd">
<svg version="1.1" xmlns="http://www.w3.org/2000/svg" xmlns:xlink="http://www.w3.org/1999/xlink" x="0px" y="0px" viewBox="0 0 1000 1000" enable-background="new 0 0 1000 1000" xml:space="preserve">
<metadata> Svg Vector Icons : http://www.onlinewebfonts.com/icon </metadata>
<g><path d="M47.7,10L47.7,10L47.7,10z"/><path d="M575.4,820.4V707.3c0-5.5-1.8-10-5.3-13.5c-3.5-3.5-8-5.3-13.5-5.3H443.5c-5.5,0-10,1.8-13.5,5.3c-3.5,3.5-5.3,8-5.3,13.5v113.1c0,5.5,1.8,10,5.3,13.5c3.5,3.5,8,5.3,13.5,5.3h113.1c5.5,0,10-1.8,13.5-5.3C573.6,830.4,575.4,825.9,575.4,820.4z M726.2,424.6c0-34.6-10.9-66.5-32.7-96c-21.8-29.4-49-52.2-81.6-68.3c-32.6-16.1-66-24.2-100.1-24.1c-95.4,0-168.2,41.8-218.5,125.4c-5.9,9.4-4.3,17.7,4.7,24.7l77.7,58.9c2.7,2.4,6.5,3.5,11.2,3.5c6.3,0,11.2-2.4,14.7-7.1c20.8-26.7,37.7-44.8,50.6-54.2c13.3-9.4,30.2-14.1,50.6-14.1c18.8,0,35.6,5.1,50.4,15.3s22.1,21.8,22.1,34.7c0,14.9-3.9,26.9-11.8,35.9c-7.8,9-21.2,17.9-40.1,26.5c-24.7,11-47.4,28-68,50.9c-20.6,23-30.9,47.6-30.9,73.9v21.2c0,5.5,1.8,10,5.3,13.5c3.5,3.5,8,5.3,13.5,5.3h113.1c5.5,0,10-1.8,13.5-5.3c3.5-3.5,5.3-8,5.3-13.5c0-7.5,4.2-17.2,12.7-29.2c8.4-12,19.1-21.7,32.1-29.2c12.6-7.1,22.2-12.7,28.9-16.8c6.7-4.1,15.7-11,27.1-20.6c11.4-9.6,20.1-19,26.2-28.3c6.1-9.2,11.6-21.1,16.5-35.6C723.7,457.8,726.1,441.9,726.2,424.6L726.2,424.6z M952.3,537.7c0,82.1-20.2,157.7-60.7,227S796.3,888.9,727,929.3c-69.3,40.4-145,60.7-227,60.7c-82.1,0-157.7-20.2-227-60.7c-69.3-40.5-124.2-95.3-164.6-164.6c-40.4-69.3-60.7-145-60.7-227c0-82.1,20.2-157.8,60.7-227C148.8,241.4,203.7,186.5,273,146c69.3-40.5,145-60.7,227-60.7c82.1,0,157.7,20.2,227,60.7c69.3,40.4,124.2,95.3,164.6,164.6C932.1,380,952.3,455.6,952.3,537.7z"/></g>
</svg>