<?xml version="1.0" encoding="utf-8"?>
<!-- Svg Vector Icons : http://www.onlinewebfonts.com/icon -->
<!DOCTYPE svg PUBLIC "-//W3C//DTD SVG 1.1//EN" "http://www.w3.org/Graphics/SVG/1.1/DTD/svg11.dtd">
<svg version="1.1" xmlns="http://www.w3.org/2000/svg" xmlns:xlink="http://www.w3.org/1999/xlink" x="0px" y="0px" viewBox="0 0 1000 1000" enable-background="new 0 0 1000 1000" xml:space="preserve">
<metadata> Svg Vector Icons : http://www.onlinewebfonts.com/icon </metadata>
<g><path d="M216.2,583.4c-47.8,47.8-11.1,89.1,0,100.3l100.2,100.3c11.1,11,49.3,49.3,100.3,0l401-401.1L617.3,182.4L216.2,583.4z"/><path d="M135.3,713c-8.3-8.3-22.3-8-31,0.8c-1.9,1.9-3.5,4.1-4.5,6.4l-1.6,4.4L12.3,959.8l-1.5,4.2c-1.9,7.2-0.2,14.9,5.2,20.4c5.4,5.4,13.2,7.1,20.4,5.4l4.4-1.6l235-86l4.4-1.6c2.4-1.1,4.4-2.6,6.4-4.5c8.7-8.8,9.1-22.6,0.8-31L135.3,713z"/><path d="M972,137.3L862.6,27.7c-25.1-25-66.7-23.9-93,2.5L667.4,132.2l200.5,200.5l101.6-102.4C995.8,203.9,996.9,162.3,972,137.3z"/></g>
</svg>