<?xml version="1.0" encoding="utf-8"?>
<!-- Svg Vector Icons : http://www.onlinewebfonts.com/icon -->
<!DOCTYPE svg PUBLIC "-//W3C//DTD SVG 1.1//EN" "http://www.w3.org/Graphics/SVG/1.1/DTD/svg11.dtd">
<svg version="1.1" xmlns="http://www.w3.org/2000/svg" xmlns:xlink="http://www.w3.org/1999/xlink" x="0px" y="0px" viewBox="0 0 1000 1000" enable-background="new 0 0 1000 1000" xml:space="preserve">
<metadata> Svg Vector Icons : http://www.onlinewebfonts.com/icon </metadata>
<g><g transform="translate(0.000000,511.000000) scale(0.100000,-0.100000)"><path d="M4656.7,4980.1c-272.9-73-492-276.7-590-545.8c-19.2-53.8-36.5-199.9-48-384.3c-21.1-361.3-44.2-434.3-182.6-568.8c-119.1-117.2-230.6-161.4-401.6-161.4c-192.2,0-265.2,36.5-499.6,251.7c-271,247.9-415.1,324.8-649.5,338.2c-178.7,11.5-322.8-19.2-478.5-103.8c-107.6-59.6-432.4-384.3-501.5-505.4c-101.9-176.8-136.4-428.5-82.6-626.5c42.3-161.4,121.1-284.4,322.9-503.5c209.5-228.7,246-301.7,246-493.9c0-230.6-115.3-422.8-313.2-516.9c-86.5-42.3-142.2-50-407.4-65.3c-236.4-15.4-332.4-28.8-417-61.5c-221-82.6-411.2-272.9-497.7-495.8C102.3,400.8,81.2-23.9,119.6-195c61.5-278.6,267.1-516.9,534.2-616.9c84.6-32.7,178.7-46.1,415.1-59.6c336.3-19.2,411.2-40.4,536.1-151.8c121.1-105.7,173-213.3,182.6-384.3c13.5-228.7-17.3-295.9-249.8-547.7c-242.1-265.2-320.9-413.2-336.3-638c-11.5-165.3,21.1-330.5,92.2-470.8c55.7-109.5,399.7-459.3,513.1-520.8c155.7-84.6,299.8-115.3,478.5-103.8c234.4,13.5,380.5,88.4,649.5,338.2c251.7,230.6,319,261.3,547.7,247.9c171-9.6,278.6-61.5,384.3-182.6c107.6-123,130.7-201.8,144.1-486.2c7.7-142.2,25-311.3,40.4-372.8c73-299.8,309.4-538.1,611.1-618.8c128.8-34.6,547.7-34.6,674.5,0c192.2,50,353.6,159.5,472.7,320.9c121.1,159.5,153.7,274.8,174.9,622.6c19.2,336.3,40.4,409.3,149.9,534.2c105.7,121.1,213.3,172.9,384.3,182.6c228.7,13.5,295.9-17.3,547.7-247.9c270.9-247.9,415.1-324.8,649.5-338.2c171-11.5,313.2,17.3,463.1,94.2c105.7,53.8,430.4,374.7,505.4,499.6c88.4,146,128.8,317.1,115.3,501.6c-15.4,221-94.2,374.7-326.7,626.5c-238.3,259.4-253.7,290.2-253.7,520.8c0,163.3,5.8,192.2,51.9,271c28.8,48,84.6,117.2,124.9,151.8c124.9,109.5,197.9,130.7,534.2,149.9c347.8,21.2,463.1,53.8,622.6,174.9c161.4,119.2,270.9,280.6,320.9,472.7c34.6,126.8,34.6,545.8,0,672.6c-50,192.2-159.5,353.6-320.9,472.7c-159.5,121.1-274.8,153.7-622.6,174.9c-336.3,19.2-409.3,40.3-534.2,149.9c-121.1,105.7-172.9,213.3-182.6,384.3c-13.5,226.8,17.3,295.9,244.1,545.8c203.7,222.9,278.7,340.1,320.9,499.6c53.8,197.9,19.2,449.7-82.6,626.5c-69.2,121.1-393.9,445.8-501.6,505.4c-155.7,84.6-299.8,115.3-478.5,103.8c-232.5-13.5-380.5-90.3-639.9-328.6c-261.3-238.3-288.3-251.7-518.9-251.7c-163.3,0-192.2,5.8-270.9,51.9c-48,28.8-117.2,84.6-151.8,124.9c-109.5,124.9-130.7,197.9-149.9,534.2c-21.1,347.8-53.8,463.1-174.9,622.6c-119.2,161.4-280.6,271-472.7,320.9C5208.2,5018.6,4791.2,5016.6,4656.7,4980.1z M5262,4422.8c128.7-61.5,148-111.5,173-476.6c13.4-190.2,36.5-363.2,53.8-411.2c132.6-369,445.8-659.1,801.3-743.7c155.7-36.5,395.9-36.5,551.5,0c186.4,44.2,326.7,126.8,530.4,311.3c261.3,234.4,294,255.6,392,255.6c111.4,0,163.3-30.7,313.2-186.4c149.9-151.8,171-188.3,171-288.3c0-103.8-30.7-151.8-238.3-378.6c-269-295.9-357.4-497.7-357.4-835.9c0-482.3,297.9-897.4,772.5-1070.4c50-19.2,215.2-40.4,411.2-53.8c365.1-25,415.1-44.2,476.6-172.9c42.3-92.2,42.3-430.4,0-522.7c-61.5-128.8-111.5-148-476.6-172.9c-196-13.5-361.3-34.6-411.2-53.8c-369-134.5-649.5-436.2-741.8-791.7c-17.3-65.3-30.7-188.3-30.7-272.9c0-342.1,82.6-536.2,363.2-847.5c207.5-230.6,232.5-271,232.5-378.6c0-96.1-36.5-153.7-196-309.4c-151.8-146-201.8-171-322.8-153.7c-88.4,11.5-103.8,23.1-357.4,249.8c-282.5,255.6-482.3,340.1-812.9,340.1c-482.3,0-897.4-297.9-1070.4-772.5c-19.2-50-40.4-215.2-53.8-411.2c-25-365.1-44.2-415.1-173-476.6c-92.3-42.3-430.5-42.3-522.7,0c-128.7,61.5-148,111.5-172.9,476.6c-13.4,190.2-36.5,363.2-53.8,411.2c-132.6,365.1-436.2,649.5-791.7,741.8c-148,38.4-401.6,38.4-561.1,1.9c-184.5-44.2-326.7-126.8-530.4-311.3c-259.4-232.5-272.9-242.1-374.7-251.7c-121.1-11.5-173,17.3-342.1,192.2c-146,151.8-171,201.8-153.7,322.8c11.5,88.4,23.1,103.8,251.7,357.4c246,272.9,338.2,493.9,338.2,805.2c-1.9,492-295.9,903.2-772.5,1078.1c-50,19.2-215.2,40.3-411.2,53.8c-365.1,25-415.1,44.2-476.6,172.9c-42.3,92.2-42.3,430.4,0,522.7c61.5,128.8,111.5,148,476.6,172.9c443.9,32.7,616.9,99.9,855.2,334.4c219.1,217.1,328.6,480.4,328.6,797.5c0,322.8-90.3,528.5-363.2,834c-207.5,230.6-232.5,271-232.5,378.6c0,92.2,23.1,132.6,171,282.5c148,151.8,203.7,186.4,303.6,186.4c103.8,0,151.8-30.7,378.6-238.3c294-267.1,499.6-357.4,828.2-357.4c492,0,907,297.9,1078.1,772.5c17.3,48,40.4,221,53.8,411.2c26.9,363.2,44.2,413.2,169.1,474.6C4823.9,4465.1,5169.8,4465.1,5262,4422.8z"/><path d="M4704.7,2166.8c-294-46.1-632.2-180.6-874.4-345.9c-159.5-105.7-365.1-303.6-484.3-459.3c-134.5-176.8-295.9-513.1-357.4-741.8c-44.2-171-50-226.8-50-509.2c0-280.6,5.8-338.2,50-505.4c161.4-607.2,561.1-1093.4,1122.3-1362.5c889.7-426.6,1948.6-167.2,2546.2,626.5c463.1,614.9,545.7,1435.5,211.4,2131.1c-269,561.1-761,966.6-1362.5,1120.3C5294.7,2174.5,4902.7,2197.5,4704.7,2166.8z M5304.3,1598c878.2-180.6,1414.4-1093.4,1139.6-1946.7c-76.9-240.2-190.2-422.8-374.7-609.2c-186.4-184.5-368.9-297.9-609.2-374.7c-972.4-313.2-1977.4,420.8-1977.4,1443.2c0,392,144.1,749.5,418.9,1041.6C4262.8,1534.6,4793.1,1703.7,5304.3,1598z"/></g></g>
</svg>