<?xml version="1.0" encoding="utf-8"?>
<!-- Svg Vector Icons : http://www.onlinewebfonts.com/icon -->
<!DOCTYPE svg PUBLIC "-//W3C//DTD SVG 1.1//EN" "http://www.w3.org/Graphics/SVG/1.1/DTD/svg11.dtd">
<svg version="1.1" xmlns="http://www.w3.org/2000/svg" xmlns:xlink="http://www.w3.org/1999/xlink" x="0px" y="0px" viewBox="0 0 1000 1000" enable-background="new 0 0 1000 1000" xml:space="preserve">
<metadata> Svg Vector Icons : http://www.onlinewebfonts.com/icon </metadata>
<g><path d="M821.3,990H50c-12.2,0-22-9.8-22-22v-847c0-12.2,9.8-22,22-22h600.5c12.2,0,22,7.1,22,27.8c0,19.7-9.8,27.8-22,27.8H81.8v779.9h708.4V299.2c0-12.2,6.9-22,27.8-22c18.6,0,27.8,9.8,27.8,22v671.2C843.3,980.2,833.5,990,821.3,990L821.3,990z"/><path d="M428.3,435.3H167.2c-12.2,0-22-7.8-22-27.8c0-17.7,9.8-27.8,22-27.8h261.2c12.2,0,22,7.4,22,27.8C450.3,426.6,440.5,435.3,428.3,435.3L428.3,435.3z"/><path d="M652.9,657.4H164.7c-12.2,0-22-9.9-22-27.8c0-17.2,9.8-27.8,22-27.8h488.2c12.2,0,22,8.8,22,27.8C674.9,649.3,665.1,657.4,652.9,657.4L652.9,657.4z"/><path d="M529,446.8c-12-12-15.2-28-7.9-35.3L926.3,13.7c7.3-7.3,26.6-3,36.6,7.3c7.2,7.4,13,23.1,5.7,30.4L563.4,449.2C556.9,456.3,540.7,458.6,529,446.8z"/><path d="M700.3,315.5L661,276.2L700.3,315.5z"/></g>
</svg>