<?xml version="1.0" encoding="UTF-8" standalone="no"?>
<!-- Created with Inkscape (http://www.inkscape.org/) -->

<svg
   xmlns:dc="http://purl.org/dc/elements/1.1/"
   xmlns:cc="http://creativecommons.org/ns#"
   xmlns:rdf="http://www.w3.org/1999/02/22-rdf-syntax-ns#"
   xmlns:svg="http://www.w3.org/2000/svg"
   xmlns="http://www.w3.org/2000/svg"
   xmlns:sodipodi="http://sodipodi.sourceforge.net/DTD/sodipodi-0.dtd"
   xmlns:inkscape="http://www.inkscape.org/namespaces/inkscape"
   width="210mm"
   height="297mm"
   id="svg2"
   version="1.1"
   inkscape:version="0.48.4 r9939"
   sodipodi:docname="logo.svg">
  <defs
     id="defs4" />
  <sodipodi:namedview
     id="base"
     pagecolor="#ffffff"
     bordercolor="#666666"
     borderopacity="1.0"
     inkscape:pageopacity="0.0"
     inkscape:pageshadow="2"
     inkscape:zoom="0.24748737"
     inkscape:cx="-607.08535"
     inkscape:cy="753.90847"
     inkscape:document-units="px"
     inkscape:current-layer="layer1"
     showgrid="false"
     inkscape:window-width="1920"
     inkscape:window-height="1018"
     inkscape:window-x="-8"
     inkscape:window-y="-8"
     inkscape:window-maximized="1" />
  <metadata
     id="metadata7">
    <rdf:RDF>
      <cc:Work
         rdf:about="">
        <dc:format>image/svg+xml</dc:format>
        <dc:type
           rdf:resource="http://purl.org/dc/dcmitype/StillImage" />
        <dc:title></dc:title>
      </cc:Work>
    </rdf:RDF>
  </metadata>
  <g
     inkscape:label="Ebene 1"
     inkscape:groupmode="layer"
     id="layer1">
    <g
       id="g2989"
       transform="translate(-1594.2853,-299.06639)"
       inkscape:export-filename="D:\__devProjects\git_projects\RecNForget\logo.png"
       inkscape:export-xdpi="90"
       inkscape:export-ydpi="90">
      <g
         id="g2991">
        <path
           id="path2993"
           d="m 912.2,244.9 c -5.4,-21.6 -32.1,-39.2 -59.3,-39.2 H 518.7 c -27.2,0 -65.2,-15.6 -84.4,-34.7 L 405,142.3 C 385.8,123.2 347.8,107.7 320.6,107.7 H 161 c -27.2,0 -51.9,21.9 -54.9,48.7 L 91.7,303.8 H 922 l -9.8,-58.9 0,0 z m 49.4,108 H 38.4 c -16.8,0 -29.9,14.4 -28.3,31.1 l 45.3,474.2 c 1.8,19.3 18.1,34.1 37.6,34.1 h 814 c 19.5,0 35.7,-14.8 37.6,-34.1 L 989.9,384 c 1.6,-16.7 -11.6,-31.1 -28.3,-31.1 l 0,0 z"
           inkscape:connector-curvature="0" />
      </g>
    </g>
    <g
       id="g3010"
       transform="matrix(0.60562983,0,0,0.60562983,-1397.1007,17.779632)"
       style="fill:#ffffff;fill-opacity:1"
       inkscape:export-filename="D:\__devProjects\git_projects\RecNForget\logo.png"
       inkscape:export-xdpi="90"
       inkscape:export-ydpi="90">
      <path
         id="path3012"
         d="m 632.5,66.3 c -14.1,-7.1 -31,-5.8 -43.7,3.6 L 287.3,290.6 H 96 c -22.6,0 -43.9,8.4 -60.1,23.8 -16.7,15.9 -25.9,37.2 -25.9,60 v 251.3 c 0,22.7 9.2,44 25.9,60 16.2,15.4 37.5,23.8 60,23.8 h 191.3 l 301.5,220.8 c 7.3,5.4 16,8.1 24.8,8.1 6.5,0 12.9,-1.5 19,-4.6 14,-7.1 22.9,-21.5 22.9,-37.4 V 103.6 c 0,-15.8 -8.9,-30.2 -22.9,-37.3 z m -60.8,747.5 -245.9,-180 c -7.2,-5.3 -15.9,-8 -24.8,-8 H 93.8 V 500.1 L 96,374.4 v 0 h 205 c 8.9,0 17.6,-2.8 24.8,-8.1 l 245.9,-180 v 627.5 z"
         inkscape:connector-curvature="0"
         style="fill:#ffffff;fill-opacity:1" />
      <rect
         id="rect3014"
         height="418.79999"
         width="83.800003"
         y="290.60001"
         x="738.70001"
         style="fill:#ffffff;fill-opacity:1" />
      <rect
         id="rect3016"
         height="586.29999"
         width="83.800003"
         y="206.8"
         x="906.20001"
         style="fill:#ffffff;fill-opacity:1" />
    </g>
  </g>
</svg>
