<?xml version="1.0" encoding="utf-8"?>
<!-- Svg Vector Icons : http://www.onlinewebfonts.com/icon -->
<!DOCTYPE svg PUBLIC "-//W3C//DTD SVG 1.1//EN" "http://www.w3.org/Graphics/SVG/1.1/DTD/svg11.dtd">
<svg version="1.1" xmlns="http://www.w3.org/2000/svg" xmlns:xlink="http://www.w3.org/1999/xlink" x="0px" y="0px" viewBox="0 0 1000 1000" enable-background="new 0 0 1000 1000" xml:space="preserve">
<metadata> Svg Vector Icons : http://www.onlinewebfonts.com/icon </metadata>
<g><g transform="translate(0.000000,512.000000) scale(0.100000,-0.100000)"><path d="M4621.4,5014.1c-30.6-3.8-139.9-17.2-239.5-28.7c-1044.2-118.8-2080.8-626.5-2853-1398.7C754.8,2812.6,285.4,1856.5,124.4,724.1c-32.6-226.1-32.6-981,0-1207.1c126.5-889,444.5-1667,965.7-2362.5c170.5-228,578.6-649.5,810.5-837.3C3397-4899.4,5472.1-5123.6,7198.4-4257.6c454.1,228,818.2,488.6,1201.4,860.3c433,419.6,722.4,812.4,981,1335.5c582.5,1170.7,678.3,2481.3,270.2,3715.2c-243.3,743.4-640,1385.3-1187.9,1935.2c-754.9,753-1707.2,1230.1-2782.1,1391C5495.1,5006.5,4747.8,5031.4,4621.4,5014.1z M5665.6,4671.2c1279.9-197.3,2395-898.6,3127-1963.9C9193,2124.8,9445.9,1459.9,9557,705c38.3-258.7,34.5-942.7-7.6-1216.7c-80.5-523.1-208.9-935-435-1389.1c-237.6-480.9-507.7-860.3-875.6-1228.2c-354.5-354.5-720.4-617-1184.1-852.6c-672.5-339.1-1291.4-484.8-2059.7-484.8c-571,0-996.3,70.9-1521.3,249.1c-258.7,90.1-760.7,339.1-998.3,496.3C1348.8-2971.9,616.8-1801.2,431-454.2c-32.6,237.6-32.6,935,1.9,1159.2c205,1393,927.4,2533,2080.8,3284.1c609.3,396.6,1304.8,634.2,2107.6,718.5C4788.1,4724.8,5472.1,4701.8,5665.6,4671.2z"/><path d="M4655.8,2584.6c-503.9-95.8-940.8-398.5-1153.4-799c-128.4-239.5-184-511.6-136-659.1c30.7-95.8,143.7-218.4,239.5-260.6c92-42.1,254.8-46,341-9.6c128.4,53.7,199.3,159,304.7,444.5c70.9,197.3,216.5,423.4,316.1,492.4c132.2,90.1,228,115,456,116.9c191.6,0,222.3-3.8,327.7-53.6c237.6-107.3,379.4-316.1,379.4-557.6c0-206.9-70.9-323.8-362.1-592.1C4887.7,262.4,4721,84.2,4644.4-72.9c-116.9-239.5-162.9-561.4-105.4-753c65.2-216.5,354.5-327.7,571-216.5c116.9,57.5,159,130.3,220.3,373.6c70.9,287.4,118.8,362.1,396.6,618.9c469.4,433,708.9,687.9,787.5,835.4c214.6,408.1,151.4,915.9-162.9,1291.4c-182,218.4-482.8,398.5-802.8,479C5339.9,2607.6,4860.9,2622.9,4655.8,2584.6z"/><path d="M4736.3-1439.1c-174.4-82.4-275.9-241.4-277.8-433c0-149.4,30.7-239.5,109.2-327.6c93.9-103.5,199.3-155.2,343-166.7c302.7-23,530.7,182,530.7,480.9c0,155.2-49.8,266.3-162.9,371.7C5134.8-1383.5,4916.4-1352.8,4736.3-1439.1z"/></g></g>
</svg>