<?xml version="1.0" encoding="utf-8"?>
<!-- Svg Vector Icons : http://www.onlinewebfonts.com/icon -->
<!DOCTYPE svg PUBLIC "-//W3C//DTD SVG 1.1//EN" "http://www.w3.org/Graphics/SVG/1.1/DTD/svg11.dtd">
<svg version="1.1" xmlns="http://www.w3.org/2000/svg" xmlns:xlink="http://www.w3.org/1999/xlink" x="0px" y="0px" viewBox="0 0 1000 1000" enable-background="new 0 0 1000 1000" xml:space="preserve">
<metadata> Svg Vector Icons : http://www.onlinewebfonts.com/icon </metadata>
<g><g><path d="M649.5,463.2c30.7-30.7,46-67.5,46-110.4c0-53.7-19.2-99.7-57.5-138s-84.4-57.5-138-57.5c-53.7,0-99.7,19.2-138,57.5s-57.5,84.4-57.5,138h96.6c0-26.1,10-49.1,29.9-69s42.9-29.9,69-29.9s49.1,10,69,29.9c19.9,19.9,29.9,42.9,29.9,69c0,26.1-10,49.1-29.9,69l-59.8,62.1c-38.3,41.4-57.5,87.4-57.5,138v25.3h96.6c0-50.6,19.2-96.6,57.5-138L649.5,463.2z M548.3,842.8v-96.6h-96.6v96.6H548.3z M500,10c135,0,250.4,47.9,346.2,143.8S990,365,990,500s-47.9,250.4-143.8,346.2S635,990,500,990c-135,0-250.4-47.9-346.2-143.8S10,635,10,500s47.9-250.4,143.8-346.2S365,10,500,10z"/></g></g>
</svg>