<?xml version="1.0" encoding="utf-8"?>
<!-- Svg Vector Icons : http://www.onlinewebfonts.com/icon -->
<!DOCTYPE svg PUBLIC "-//W3C//DTD SVG 1.1//EN" "http://www.w3.org/Graphics/SVG/1.1/DTD/svg11.dtd">
<svg version="1.1" xmlns="http://www.w3.org/2000/svg" xmlns:xlink="http://www.w3.org/1999/xlink" x="0px" y="0px" viewBox="0 0 1000 1000" enable-background="new 0 0 1000 1000" xml:space="preserve">
<metadata> Svg Vector Icons : http://www.onlinewebfonts.com/icon </metadata>
<g><path d="M984.3,390.7c-5.7-8-15-12.8-24.8-12.8H833.7v-183c0-16.9-13.6-30.5-30.5-30.5H388.8l-51.6-52c-5.7-5.8-13.5-9-21.6-9h-275c-16.8,0-30.5,13.6-30.5,30.5v732.2c0,0.4,0.2,0.7,0.2,1.2c0.1,3.6,0.7,7.2,2.1,10.5c0.1,0.2,0.3,0.4,0.4,0.7c0.8,1.9,1.8,3.7,3,5.4c0.7,1,1.7,1.8,2.5,2.7c0.5,0.5,0.9,1,1.4,1.5c2.5,2.3,5.3,4.2,8.3,5.6c0.6,0.3,1.2,0.4,1.8,0.7c3.4,1.3,7,2.1,10.7,2.1h762.7c13,0,24.6-8.3,28.9-20.6l156.3-457.6C991.5,409,990,398.7,984.3,390.7z M302.8,164.4l51.6,52c5.7,5.8,13.5,9,21.7,9h396.6V378H193c-13.1,0-24.8,8.4-28.9,20.9L71,678.1V164.4H302.8z M781.4,835.6H82.8L215,439h701.8L781.4,835.6z"/></g>
</svg>