<?xml version="1.0" encoding="utf-8"?>
<!-- Svg Vector Icons : http://www.onlinewebfonts.com/icon -->
<!DOCTYPE svg PUBLIC "-//W3C//DTD SVG 1.1//EN" "http://www.w3.org/Graphics/SVG/1.1/DTD/svg11.dtd">
<svg version="1.1" xmlns="http://www.w3.org/2000/svg" xmlns:xlink="http://www.w3.org/1999/xlink" x="0px" y="0px" viewBox="0 0 1000 1000" enable-background="new 0 0 1000 1000" xml:space="preserve">
<metadata> Svg Vector Icons : http://www.onlinewebfonts.com/icon </metadata>
<g><g><g><path d="M949.2,990H50.8c-11.3,0-20.4-9.1-20.4-20.4V30.4c0-11.3,9.1-20.4,20.4-20.4h898.3c11.3,0,20.4,9.1,20.4,20.4v939.2C969.6,980.9,960.5,990,949.2,990z M71.2,949.2h857.5V50.8H71.2V949.2z M746.3,622.5c-11.3,0-20.4-9.1-20.4-20.4v-81.7c0-11.3,9.1-20.4,20.4-20.4c11.3,0,20.4,9.1,20.4,20.4v81.7C766.7,613.4,757.6,622.5,746.3,622.5z M500,622.5c-11.3,0-20.4-9.1-20.4-20.4V316.3c0-11.3,9.1-20.4,20.4-20.4c11.3,0,20.4,9.1,20.4,20.4v285.8C520.4,613.4,511.3,622.5,500,622.5z M255,622.5c-11.3,0-20.4-9.1-20.4-20.4V438.7c0-11.3,9.1-20.4,20.4-20.4c11.3,0,20.4,9.1,20.4,20.4v163.3C275.4,613.4,266.3,622.5,255,622.5z M746.3,459.2c-11.3,0-20.4-9.1-20.4-20.4V152.9c0-11.3,9.1-20.4,20.4-20.4c11.3,0,20.4,9.1,20.4,20.4v285.8C766.7,450,757.6,459.2,746.3,459.2z M255,377.5c-11.3,0-20.4-9.1-20.4-20.4V152.9c0-11.3,9.1-20.4,20.4-20.4c11.3,0,20.4,9.1,20.4,20.4v204.2C275.4,368.4,266.3,377.5,255,377.5z M500,255c-11.3,0-20.4-9.1-20.4-20.4v-81.7c0-11.3,9.1-20.4,20.4-20.4c11.3,0,20.4,9.1,20.4,20.4v81.7C520.4,245.9,511.3,255,500,255z"/><path d="M827.9,540.8H664.6c-11.3,0-20.4-9.1-20.4-20.4v-81.7c0-11.3,9.1-20.4,20.4-20.4h163.3c11.3,0,20.4,9.1,20.4,20.4v81.7C848.4,531.7,839.2,540.8,827.9,540.8z M685,500h122.5v-40.8H685V500z M336.7,459.2H173.3c-11.3,0-20.4-9.1-20.4-20.4v-81.7c0-11.3,9.1-20.4,20.4-20.4h163.3c11.3,0,20.4,9.1,20.4,20.4v81.7C357.1,450,348,459.2,336.7,459.2z M193.7,418.3h122.5v-40.8H193.7V418.3z M581.7,336.7H418.3c-11.3,0-20.4-9.1-20.4-20.4v-81.7c0-11.3,9.1-20.4,20.4-20.4h163.3c11.3,0,20.4,9.1,20.4,20.4v81.7C602.1,327.5,593,336.7,581.7,336.7z M438.7,295.8h122.5V255H438.7L438.7,295.8L438.7,295.8z"/><path d="M746.7,867.5c-45,0-81.7-36.6-81.7-81.7c0-45,36.6-81.7,81.7-81.7c45,0,81.7,36.6,81.7,81.7C828.4,830.9,791.7,867.5,746.7,867.5z M746.7,745c-22.5,0-40.8,18.3-40.8,40.8c0,22.5,18.3,40.8,40.8,40.8c22.5,0,40.8-18.3,40.8-40.8C787.5,763.3,769.2,745,746.7,745z"/><path d="M500,867.5c-45,0-81.7-36.6-81.7-81.7c0-45,36.6-81.7,81.7-81.7c45,0,81.7,36.6,81.7,81.7C581.7,830.9,545,867.5,500,867.5z M500,745c-22.5,0-40.8,18.3-40.8,40.8c0,22.5,18.3,40.8,40.8,40.8c22.5,0,40.8-18.3,40.8-40.8C540.8,763.3,522.5,745,500,745z"/><path d="M255,867.5c-45,0-81.7-36.6-81.7-81.7c0-45,36.6-81.7,81.7-81.7s81.7,36.6,81.7,81.7C336.7,830.9,300,867.5,255,867.5z M255,745c-22.5,0-40.8,18.3-40.8,40.8c0,22.5,18.3,40.8,40.8,40.8c22.5,0,40.8-18.3,40.8-40.8C295.8,763.3,277.5,745,255,745z"/></g></g><g></g><g></g><g></g><g></g><g></g><g></g><g></g><g></g><g></g><g></g><g></g><g></g><g></g><g></g><g></g></g>
</svg>