<?xml version="1.0" encoding="utf-8"?>
<!-- Svg Vector Icons : http://www.onlinewebfonts.com/icon -->
<!DOCTYPE svg PUBLIC "-//W3C//DTD SVG 1.1//EN" "http://www.w3.org/Graphics/SVG/1.1/DTD/svg11.dtd">
<svg version="1.1" xmlns="http://www.w3.org/2000/svg" xmlns:xlink="http://www.w3.org/1999/xlink" x="0px" y="0px" viewBox="0 0 1000 1000" enable-background="new 0 0 1000 1000" xml:space="preserve">
<metadata> Svg Vector Icons : http://www.onlinewebfonts.com/icon </metadata>
<g><g transform="translate(0.000000,511.000000) scale(0.100000,-0.100000)"><path d="M6430.8,4747.3c-259.6-79.7-723.6-370-784.9-490.5c-42.9-83.8-38.8-114.5,40.9-257.5c96.1-173.7,94-218.7-32.7-388.3c-55.2-77.7-149.2-237.1-208.5-353.6c-130.8-261.6-165.6-288.2-384.3-288.2c-220.7,0-249.4-36.8-286.2-384.3c-26.6-243.2-2-623.4,47-731.7c36.8-77.7,118.5-110.4,275.9-110.4c92,0,155.3-10.2,184-30.7c24.5-18.4,85.8-120.6,139-228.9c51.1-108.3,143.1-273.9,206.4-367.9c132.9-196.2,136.9-237.1,30.7-408.8c-114.5-188-75.6-275.9,212.6-474.2c165.6-114.5,494.6-280,600.9-300.5c104.2-20.4,171.7,22.5,249.3,159.4c38.8,67.4,92,132.9,120.6,147.2c67.4,32.7,893.2,28.6,954.5-4.1c24.5-14.3,75.6-83.8,116.5-157.4c89.9-159.4,147.1-184,308.6-136.9c251.4,71.5,733.8,372,797.1,494.6c42.9,83.8,38.8,114.5-40.9,257.5c-96.1,171.7-92,214.6,32.7,386.3c57.2,79.7,151.3,239.1,208.5,355.6c128.8,261.6,163.5,288.2,384.2,288.2c220.8,0,249.4,36.8,286.2,384.3c26.6,243.2,2.1,623.4-47,731.7c-36.8,77.7-118.5,110.4-275.9,110.4c-89.9,0-155.3,10.2-181.9,30.7c-24.5,16.3-94,132.9-157.4,259.6c-61.3,126.7-151.3,282.1-198.3,343.4c-128.8,171.7-130.8,226.9-20.4,406.7c79.7,128.8,79.7,204.4-2,298.4c-130.8,147.2-645.9,445.6-823.7,474.2c-94,14.3-145.1-18.4-231-153.3c-116.5-188-89.9-179.9-596.8-175.8c-282.1,2-459.9,12.3-486.5,26.6c-24.5,12.3-77.7,81.8-118.5,155.3c-40.9,73.6-75.6,132.9-77.7,132.9c-2.1,0-32.7,8.2-67.5,18.4C6561.6,4778,6510.5,4771.8,6430.8,4747.3z M7608.1,3490.3c464-120.6,788.9-466,880.9-938.2c38.8-200.3,26.6-388.3-42.9-594.8c-108.3-320.9-398.6-607.1-737.9-727.6c-153.3-55.2-433.3-73.6-605-38.8c-629.5,122.6-1052.6,750.1-927.9,1369.4c94,464,435.4,823.7,880.9,932C7201.3,3527.1,7467,3527.1,7608.1,3490.3z"/><path d="M2792.6,1722.3c-190.1-22.5-376.1-73.6-521.2-141c-171.7-79.7-190.1-128.8-145.1-370c57.2-296.4,57.2-298.4-161.5-425.1c-79.7-47-190.1-120.6-245.3-163.5c-122.6-96.1-177.8-126.7-226.9-126.7c-20.4,0-114.5,51.1-208.5,112.4c-143.1,94-186,112.4-261.6,112.4c-81.8,0-100.1-10.2-198.3-106.3c-186-188-386.3-523.2-414.9-699C393-184.7,431.9-237.8,630.1-374.8c89.9-63.4,173.7-134.9,184-159.4c14.3-32.7,6.1-96.1-28.6-237.1c-28.6-106.3-57.2-257.5-65.4-335.2c-20.4-192.1-51.1-220.8-294.3-267.8C115-1433.5,72.1-1501,113-1854.6c40.9-349.5,149.2-629.5,259.6-684.7c65.4-28.6,83.8-28.6,269.8,6.1c259.6,49.1,288.2,40.9,384.3-130.8c40.9-73.6,120.6-192.1,175.8-265.7c112.4-149.2,141-198.3,141-239.2c0-16.3-51.1-106.3-112.4-202.4c-132.9-206.4-149.2-265.7-96.1-363.8c53.1-98.1,335.2-320.9,523.2-414.9c320.9-161.5,367.9-151.3,543.7,110.4c83.8,122.6,139,186,173.7,194.2c28.6,6.2,126.7-6.1,220.7-30.7c92-22.5,237.1-51.1,320.9-63.4c83.8-12.2,173.7-34.7,198.3-51.1c49.1-32.7,49.1-34.7,98.1-271.8c57.2-280,85.8-300.5,414.9-286.2c198.3,10.2,273.9,22.5,443.5,79.7c327,108.3,353.6,157.4,284.1,509c-40.9,202.4-30.7,222.8,169.7,341.3c75.6,47,202.3,130.8,280,188c79.7,59.3,161.5,104.2,190.1,104.2c28.6,0,128.8-51.1,220.7-112.4c226.9-149.2,296.4-153.3,439.4-18.4c200.3,188,427.2,580.5,429.2,744c0,100.2-32.7,141-224.8,265.7c-112.4,73.6-167.6,124.7-177.8,159.4c-6.1,28.6,8.2,134.9,32.7,239.1c24.5,104.3,51.1,241.2,57.2,308.7c22.5,220.7,36.8,235,343.4,294.3c255.5,51.1,288.2,100.2,269.8,414.9c-20.4,351.6-139,680.6-267.8,742c-61.3,30.7-81.7,30.7-224.8,0c-208.5-42.9-304.6-42.9-343.4,4.1c-16.3,18.4-71.5,104.3-124.7,188.1c-51.1,83.8-130.8,202.3-175.8,263.7C5137,316.1,5141.1,356.9,5278,563.4c145.1,216.7,149.2,282.1,26.6,414.9c-165.5,179.9-468.1,372-682.7,437.4c-126.7,38.8-200.3-6.1-322.9-196.2c-149.2-231-149.2-228.9-437.4-165.6c-130.8,30.7-286.2,59.3-345.4,65.4c-143.1,18.4-181.9,65.4-220.7,265.7c-42.9,210.5-65.4,267.8-122.6,304.5C3111.4,1730.5,2960.2,1742.7,2792.6,1722.3z M3694-127.5c466-171.7,789-543.7,887.1-1017.9c63.4-300.5,26.6-580.5-114.5-872.8c-67.4-141-116.5-206.4-259.6-349.5c-298.4-296.4-621.4-423.1-1032.2-402.7c-359.7,18.4-623.4,139-893.2,404.7c-169.6,169.6-294.3,388.3-355.6,623.4c-42.9,161.5-42.9,494.6-2,654.1c126.7,478.3,506.9,864.6,977,991.3C3125.8-35.5,3483.4-49.8,3694-127.5z"/></g></g>
</svg>