<?xml version="1.0" encoding="utf-8"?>
<!-- Svg Vector Icons : http://www.onlinewebfonts.com/icon -->
<!DOCTYPE svg PUBLIC "-//W3C//DTD SVG 1.1//EN" "http://www.w3.org/Graphics/SVG/1.1/DTD/svg11.dtd">
<svg version="1.1" xmlns="http://www.w3.org/2000/svg" xmlns:xlink="http://www.w3.org/1999/xlink" x="0px" y="0px" viewBox="0 0 1000 1000" enable-background="new 0 0 1000 1000" xml:space="preserve">
<metadata> Svg Vector Icons : http://www.onlinewebfonts.com/icon </metadata>
<g><path d="M990,568.6c0,10.6-3.9,19.8-11.6,27.6s-16.9,11.6-27.6,11.6H813.6c0,69.8-13.7,129-41,177.6l127.4,128c7.8,7.8,11.6,16.9,11.6,27.6s-3.9,19.8-11.6,27.6c-7.3,7.8-16.5,11.6-27.6,11.6c-11,0-20.2-3.9-27.6-11.6L723.5,847.9c-2,2-5.1,4.7-9.2,8c-4.1,3.3-12.6,9.1-25.7,17.4c-13.1,8.4-26.3,15.8-39.8,22.3s-30.2,12.5-50.2,17.8s-39.8,8-59.4,8V372.6h-78.4v548.8c-20.8,0-41.6-2.8-62.2-8.3c-20.6-5.5-38.4-12.3-53.3-20.2c-14.9-8-28.4-15.9-40.4-23.9c-12-7.9-20.9-14.6-26.7-19.9l-9.2-8.6L157,967.3c-8.2,8.6-18,12.9-29.4,12.9c-9.8,0-18.6-3.3-26.3-9.8c-7.8-7.3-11.9-16.4-12.5-27.2c-0.6-10.8,2.6-20.3,9.5-28.5l123.7-139c-23.7-46.5-35.5-102.5-35.5-167.8H49.2c-10.6,0-19.8-3.9-27.6-11.6S10,579.1,10,568.5s3.9-19.8,11.6-27.6c7.8-7.8,16.9-11.6,27.6-11.6h137.2V349.2l-106-106c-7.8-7.8-11.6-16.9-11.6-27.6c0-10.6,3.9-19.8,11.6-27.6c7.8-7.8,16.9-11.6,27.6-11.6c10.6,0,19.8,3.9,27.6,11.6l106,106h517l106-106c7.8-7.8,16.9-11.6,27.6-11.6s19.8,3.9,27.6,11.6c7.8,7.8,11.6,16.9,11.6,27.6c0,10.6-3.9,19.8-11.6,27.6l-106,106v180.1h137.2c10.6,0,19.8,3.9,27.6,11.6C986.1,548.7,990,557.9,990,568.6L990,568.6z M696,215.8H304c0-54.3,19.1-100.5,57.3-138.7c38.2-38.2,84.4-57.3,138.7-57.3c54.3,0,100.5,19.1,138.7,57.3S696,161.5,696,215.8L696,215.8z"/></g>
</svg>