<?xml version="1.0" encoding="utf-8"?>
<!-- Svg Vector Icons : http://www.onlinewebfonts.com/icon -->
<!DOCTYPE svg PUBLIC "-//W3C//DTD SVG 1.1//EN" "http://www.w3.org/Graphics/SVG/1.1/DTD/svg11.dtd">
<svg version="1.1" xmlns="http://www.w3.org/2000/svg" xmlns:xlink="http://www.w3.org/1999/xlink" x="0px" y="0px" viewBox="0 0 1000 1000" enable-background="new 0 0 1000 1000" xml:space="preserve">
<metadata> Svg Vector Icons : http://www.onlinewebfonts.com/icon </metadata>
<g><g transform="translate(0.000000,511.000000) scale(0.100000,-0.100000)"><path d="M4124.8,4342.2l-155-667.8l-152.7-52.4c-82-27.4-255.3-98-382.9-152.7c-175.5-79.8-241.6-98-273.5-82c-22.8,13.7-264.4,161.8-535.6,330.5c-271.2,170.9-515.1,321.3-544.7,335c-45.6,25.1-84.3-6.8-547-469.5C1196.2,3246,1039,3072.8,1048.1,3050c6.8-18.2,164.1-280.3,353.3-583.4c186.9-300.8,339.6-558.4,339.6-572c0-13.7-38.8-104.8-88.9-202.8c-47.9-100.3-116.2-264.4-152.7-364.6l-63.8-186.9l-667.8-155L100,830.2V110v-720.2l665.5-155c366.9-84.3,667.8-155,670-157.2c0-2.3,29.6-86.6,66.1-186.9c34.2-100.3,102.6-262.1,152.7-362.4c47.9-98,86.6-189.2,86.6-202.8c0-13.7-152.7-271.2-339.6-572.1c-184.6-303.1-346.4-562.9-355.5-581.2c-11.4-20.5,132.2-180,480.9-528.7c273.5-275.8,505.9-499.1,515.1-499.1c11.4,0,266.6,155,572,346.4c303.1,189.2,567.5,348.7,588,353.3c20.5,6.8,118.5-29.6,216.5-79.8c100.3-47.9,264.4-118.5,364.6-155l186.9-63.8l155-667.8l155-667.8H5000h720.2l109.4,474c59.2,259.8,129.9,560.7,155,667.8l45.6,198.3l152.7,50.1c82,27.4,246.1,93.4,364.6,150.4c116.2,54.7,223.3,100.3,234.7,100.3c13.7,0,278.1-159.5,590.3-353.3c312.2-193.7,576.6-353.3,585.7-353.3c20.5,0,1007.4,986.8,1007.4,1007.4c0,9.1-159.5,273.5-353.3,585.7c-193.7,312.2-353.3,576.6-353.3,590.3c0,11.4,45.6,118.5,100.3,234.7c57,118.5,123.1,282.6,150.4,364.6l50.1,152.7l198.3,45.6c107.1,25.1,407.9,95.7,667.8,155l474,109.4V110v720.2l-672.3,157.3l-672.3,157.3l-36.5,116.2c-20.5,61.5-86.6,234.7-148.1,380.6l-114,264.4l355.5,574.3c193.7,314.5,353.3,578.9,353.3,588c0,9.1-223.3,241.6-499.1,515.1c-348.7,348.7-508.2,492.3-528.7,480.9c-18.3-9.1-278.1-170.9-581.2-355.5c-300.8-186.9-558.4-339.6-572.1-339.6c-13.7,0-104.8,38.8-202.8,86.6c-100.3,50.1-262.1,118.5-362.4,152.7c-100.3,36.5-184.6,66.1-186.9,66.1c-2.3,2.3-72.9,303.1-157.2,670l-155,665.5H5000h-720.2L4124.8,4342.2z M5398.8,2049.5C6666,1787.4,7352,385.8,6775.4-767.4c-328.2-654.1-945.8-1057.5-1684.2-1098.5C3810.3-1934.3,2800.7-753.8,3060.5,508.8C3281.6,1580,4330,2270.6,5398.8,2049.5z"/></g></g>
</svg>