<?xml version="1.0" encoding="utf-8"?>
<!-- Svg Vector Icons : http://www.onlinewebfonts.com/icon -->
<!DOCTYPE svg PUBLIC "-//W3C//DTD SVG 1.1//EN" "http://www.w3.org/Graphics/SVG/1.1/DTD/svg11.dtd">
<svg version="1.1" xmlns="http://www.w3.org/2000/svg" xmlns:xlink="http://www.w3.org/1999/xlink" x="0px" y="0px" viewBox="0 0 1000 1000" enable-background="new 0 0 1000 1000" xml:space="preserve">
<metadata> Svg Vector Icons : http://www.onlinewebfonts.com/icon </metadata>
<g><path d="M989.5,864.9c0,0,0-558.7,0-613.6c0-74.5-67.8-67.6-67.8-67.6s-405.2,0.5-383.8,0c-23.3,0.5-34.7-12.2-34.7-12.2s-16.1-27.7-45.1-71.6c-30.4-46-65.6-38.5-65.6-38.5H93.7c-82.8,0-83.7,79.6-83.7,79.6s0,662.4,0,719.7c0,88.8,67.1,77.8,67.1,77.8s800.2,0,850.8,0C999.6,938.6,989.5,864.9,989.5,864.9z M928.6,828.5c0,27.4-22.2,49.6-49.6,49.6H120.6c-27.4,0-49.6-22.2-49.6-49.6V314.9c0-27.4,22.2-49.6,49.6-49.6H879c27.4,0,49.6,22.2,49.6,49.6V828.5z"/></g>
</svg>