<?xml version="1.0" encoding="utf-8"?>
<!-- Svg Vector Icons : http://www.onlinewebfonts.com/icon -->
<!DOCTYPE svg PUBLIC "-//W3C//DTD SVG 1.1//EN" "http://www.w3.org/Graphics/SVG/1.1/DTD/svg11.dtd">
<svg version="1.1" xmlns="http://www.w3.org/2000/svg" xmlns:xlink="http://www.w3.org/1999/xlink" x="0px" y="0px" viewBox="0 0 1000 1000" enable-background="new 0 0 1000 1000" xml:space="preserve">
<metadata> Svg Vector Icons : http://www.onlinewebfonts.com/icon </metadata>
<g><g><path d="M722.7,856.4v89.1c0,12.1-4.4,22.5-13.2,31.3c-8.8,8.8-19.3,13.2-31.3,13.2H321.8c-12.1,0-22.5-4.4-31.3-13.2c-8.8-8.8-13.2-19.3-13.2-31.3v-89.1c0-12.1,4.4-22.5,13.2-31.3c8.8-8.8,19.3-13.2,31.3-13.2h44.5V544.5h-44.5c-12.1,0-22.5-4.4-31.3-13.2c-8.8-8.8-13.2-19.3-13.2-31.3v-89.1c0-12.1,4.4-22.5,13.2-31.3c8.8-8.8,19.3-13.2,31.3-13.2h267.3c12.1,0,22.5,4.4,31.3,13.2c8.8,8.8,13.2,19.3,13.2,31.3v400.9h44.5c12.1,0,22.5,4.4,31.3,13.2C718.3,833.9,722.7,844.3,722.7,856.4L722.7,856.4z M633.6,54.5v133.6c0,12.1-4.4,22.5-13.2,31.3c-8.8,8.8-19.3,13.2-31.3,13.2H410.9c-12.1,0-22.5-4.4-31.3-13.2c-8.8-8.8-13.2-19.3-13.2-31.3V54.5c0-12.1,4.4-22.5,13.2-31.3c8.8-8.8,19.3-13.2,31.3-13.2h178.2c12.1,0,22.5,4.4,31.3,13.2S633.6,42.5,633.6,54.5z"/></g></g>
</svg>