<?xml version="1.0" encoding="utf-8"?>
<!-- Svg Vector Icons : http://www.onlinewebfonts.com/icon -->
<!DOCTYPE svg PUBLIC "-//W3C//DTD SVG 1.1//EN" "http://www.w3.org/Graphics/SVG/1.1/DTD/svg11.dtd">
<svg version="1.1" xmlns="http://www.w3.org/2000/svg" xmlns:xlink="http://www.w3.org/1999/xlink" x="0px" y="0px" viewBox="0 0 1000 1000" enable-background="new 0 0 1000 1000" xml:space="preserve">
<metadata> Svg Vector Icons : http://www.onlinewebfonts.com/icon </metadata>
<g><path d="M951.5,307.7c-24.7-58.5-60-108.8-105-153.9c-45-45.1-97.4-80.5-155.7-105.2C630.3,23,566.1,10.1,500,10.1c-66.1,0-130.3,13-190.7,38.6c-58.4,24.7-110.8,60.1-155.7,105.2c-45,45.1-80.3,95.4-105,153.9C23,368.3,10,432.6,10,498.9c0,66.3,13,130.6,38.5,191.1c24.7,58.5,60,111,105,156.1c45,45.1,97.4,80.5,155.7,105.2c60.4,25.6,124.6,38.6,190.7,38.6c66.1,0,130.3-13,190.7-38.6c58.4-24.7,110.7-60.1,155.7-105.2c45-45.1,80.3-97.6,105-156.1C977,629.5,990,565.2,990,498.9C990,432.6,977,368.3,951.5,307.7z M500,953.9c-250.4,0-454-204.1-454-455C46,248,249.6,46.1,500,46.1c250.3,0,454,201.9,454,452.8C954,749.8,750.3,953.9,500,953.9z M504.5,358.7c-29.3,0-53,22.1-53,49.4v313.3c0,27.3,23.7,49.5,53,49.5c29.3,0,53-22.1,53-49.5V408.1C557.5,380.8,533.7,358.7,504.5,358.7z M504.5,202.1c-29.3,0-53,22.1-53,49.4c0,27.3,23.7,49.5,53,49.5c29.3,0,53-22.1,53-49.5C557.5,224.2,533.7,202.1,504.5,202.1z"/></g>
</svg>