<?xml version="1.0" encoding="utf-8"?>
<!-- Generator: Adobe Illustrator 16.0.0, SVG Export Plug-In . SVG Version: 6.00 Build 0)  -->
<!DOCTYPE svg PUBLIC "-//W3C//DTD SVG 1.1//EN" "http://www.w3.org/Graphics/SVG/1.1/DTD/svg11.dtd">
<svg version="1.1" id="Layer_1" xmlns="http://www.w3.org/2000/svg" xmlns:xlink="http://www.w3.org/1999/xlink" x="0px" y="0px"
	 width="612px" height="792px" viewBox="0 0 612 792" enable-background="new 0 0 612 792" xml:space="preserve">
<path d="M588.499,305.975H23.501c-10.282,0-18.299,8.813-17.32,19.033l27.724,290.211c1.102,11.812,11.077,20.869,23.011,20.869
	h498.168c11.934,0,21.849-9.058,23.011-20.869l27.724-290.211C606.798,314.788,598.72,305.975,588.499,305.975z M353.797,592.193
	c0,4.851-2.715,9.245-6.986,11.41c-1.86,0.946-3.813,1.403-5.797,1.403c-2.684,0-5.339-0.823-7.565-2.471l-91.984-67.364h-58.363
	c-6.864,0-13.362-2.563-18.305-7.26c-5.095-4.882-7.901-11.381-7.901-18.306v-76.669c0-6.955,2.806-13.454,7.901-18.305
	c4.943-4.699,11.441-7.262,18.336-7.262h58.363l91.983-67.333c3.874-2.868,9.031-3.265,13.332-1.099
	c4.271,2.167,6.986,6.56,6.986,11.38V592.193z M404.778,535.142h-25.567V407.371h25.567V535.142z M455.88,560.679h-25.565V381.805
	h25.565V560.679z"/>
<path d="M558.267,239.879c-3.305-13.219-19.646-23.99-36.292-23.99h-204.53c-16.646,0-39.902-9.547-51.653-21.237l-17.932-17.564
	c-11.75-11.689-35.006-21.175-51.653-21.175H98.532c-16.646,0-31.763,13.403-33.599,29.804l-8.813,90.209h508.143L558.267,239.879z"
	/>
<path d="M245.674,432.938h-62.542l-0.672,38.35v38.35h63.214c2.716,0,5.37,0.823,7.567,2.44l75.021,54.916V375.551l-75.021,54.916
	C251.044,432.083,248.39,432.938,245.674,432.938z"/>
</svg>
