<?xml version="1.0" encoding="utf-8"?>
<!-- Svg Vector Icons : http://www.onlinewebfonts.com/icon -->
<!DOCTYPE svg PUBLIC "-//W3C//DTD SVG 1.1//EN" "http://www.w3.org/Graphics/SVG/1.1/DTD/svg11.dtd">
<svg version="1.1" xmlns="http://www.w3.org/2000/svg" xmlns:xlink="http://www.w3.org/1999/xlink" x="0px" y="0px" viewBox="0 0 1000 1000" enable-background="new 0 0 1000 1000" xml:space="preserve">
<metadata> Svg Vector Icons : http://www.onlinewebfonts.com/icon </metadata>
<g><path d="M500,10C229.5,10,10,229.5,10,500c0,270.5,219.5,490,490,490c270.5,0,490-219.5,490-490C990,229.5,770.5,10,500,10z M739.1,649c27.4,27.4,27.4,70.6,0,94.1c-11.8,11.8-31.4,19.6-47,19.6l0,0c-19.6,0-35.3-7.8-47-19.6L500,598L355,743c-11.8,11.8-31.4,19.6-47,19.6c-19.6,0-35.3-7.8-47-19.6c-27.4-27.4-27.4-70.6,0-94.1l145-149l-145-149c-11.8-11.8-19.6-27.4-19.6-47s7.8-35.3,19.6-47c27.4-23.5,70.6-23.5,94.1,0l145,145l145-145c23.5-27.4,70.6-27.4,94.1,0c11.8,11.8,19.6,31.4,19.6,47c0,19.6-7.8,35.3-19.6,47l-145,149L739.1,649z"/></g>
</svg>