<?xml version="1.0" encoding="utf-8"?>
<!-- Svg Vector Icons : http://www.onlinewebfonts.com/icon -->
<!DOCTYPE svg PUBLIC "-//W3C//DTD SVG 1.1//EN" "http://www.w3.org/Graphics/SVG/1.1/DTD/svg11.dtd">
<svg version="1.1" xmlns="http://www.w3.org/2000/svg" xmlns:xlink="http://www.w3.org/1999/xlink" x="0px" y="0px" viewBox="0 0 1000 1000" enable-background="new 0 0 1000 1000" xml:space="preserve">
<metadata> Svg Vector Icons : http://www.onlinewebfonts.com/icon </metadata>
<g><path d="M500,10C229.4,10,10,229.4,10,500s219.4,490,490,490c270.6,0,490-219.4,490-490C990,229.4,770.6,10,500,10z M581.7,799.4c0,26.7-40.3,27.3-40.3,27.3h-80.9c0,0-40.4-2.6-40.4-27.3V444.8c0-26.4,40.4-27.3,40.4-27.3h80.9c0,0,40.3,1.8,40.3,27.3V799.4z M581.7,294.1c0,0-0.3,40.2-40.3,40.2c-70,0-80.9,0-80.9,0s-40.4-1.4-40.4-40.2c0-67.1,0-80.5,0-80.5s-1.7-40.2,40.4-40.2c66.8,0,80.9,0,80.9,0s40.3,0.9,40.3,40.2C581.7,280,581.7,294.1,581.7,294.1z"/></g>
</svg>