<?xml version="1.0" encoding="utf-8"?>
<!-- Svg Vector Icons : http://www.onlinewebfonts.com/icon -->
<!DOCTYPE svg PUBLIC "-//W3C//DTD SVG 1.1//EN" "http://www.w3.org/Graphics/SVG/1.1/DTD/svg11.dtd">
<svg version="1.1" xmlns="http://www.w3.org/2000/svg" xmlns:xlink="http://www.w3.org/1999/xlink" x="0px" y="0px" viewBox="0 0 1000 1000" enable-background="new 0 0 1000 1000" xml:space="preserve">
<metadata> Svg Vector Icons : http://www.onlinewebfonts.com/icon </metadata>
<g><path d="M980,134.4c3,6.7,5.4,14.5,7.2,23.4c1.9,8.9,2.8,18.2,2.8,27.9c0,9.7-1.9,19.3-5.6,29c-3.7,9.7-9.7,19-17.8,27.9c-8.9,8.9-16.9,16.7-24,23.4c-7.1,6.7-13.2,12.6-18.4,17.8c-5.9,5.9-11.5,11.2-16.7,15.6L699.1,90.9c8.9-8.2,19.5-18,31.8-29.5c12.3-11.5,22.5-20.6,30.6-27.3c10.4-8.2,21.2-13.9,32.3-17.3c11.1-3.3,22.1-4.8,32.9-4.5c10.8,0.4,21.2,2,31.2,5c10,3,18.7,6.3,26.2,10c15.6,8.2,32.9,22.5,51.8,42.9C954.8,90.7,969.5,112,980,134.4L980,134.4z M111.7,678.3c4.5-4.5,14.9-15.1,31.2-31.8c16.3-16.7,36.8-37.3,61.3-61.8l411.3-411.3l208.4,209.6L584.3,622.6l-89.2,90.3c-29.7,29-56.5,55.5-80.3,79.7s-43.5,44-59.1,59.6c-15.6,15.6-24.9,24.5-27.9,26.8c-7.4,6.7-16,13.7-25.6,21.2c-9.7,7.4-19.7,13.4-30.1,17.8c-10.4,5.2-25.6,11.5-45.7,18.9c-20,7.4-41,14.7-63,21.7c-21.9,7.1-42.8,13.2-62.4,18.4c-19.7,5.2-34.3,8.5-44,10c-20.1,2.2-33.4-0.7-40.1-8.9c-6.7-8.2-8.5-21.9-5.6-41.2c1.5-10.4,5-25.5,10.6-45.2c5.6-19.7,11.5-40.1,17.8-61.3c6.3-21.2,12.5-40.7,18.4-58.5c5.9-17.8,10.8-30.1,14.5-36.8c4.5-10.4,9.5-19.9,15.1-28.4C93.3,698.1,101.3,688.7,111.7,678.3L111.7,678.3z"/></g>
</svg>