<?xml version="1.0" encoding="utf-8"?>
<!-- Svg Vector Icons : http://www.onlinewebfonts.com/icon -->
<!DOCTYPE svg PUBLIC "-//W3C//DTD SVG 1.1//EN" "http://www.w3.org/Graphics/SVG/1.1/DTD/svg11.dtd">
<svg version="1.1" xmlns="http://www.w3.org/2000/svg" xmlns:xlink="http://www.w3.org/1999/xlink" x="0px" y="0px" viewBox="0 0 1000 1000" enable-background="new 0 0 1000 1000" xml:space="preserve">
<metadata> Svg Vector Icons : http://www.onlinewebfonts.com/icon </metadata>
<g><path d="M959.4,377.5H622.5V40.6c0-16.9-13.7-30.6-30.6-30.6H408.1c-16.9,0-30.6,13.7-30.6,30.6v336.9H40.6c-16.9,0-30.6,13.7-30.6,30.6v183.8c0,16.9,13.7,30.6,30.6,30.6h336.9v336.9c0,16.9,13.7,30.6,30.6,30.6h183.8c16.9,0,30.6-13.8,30.6-30.6V622.5h336.9c16.9,0,30.6-13.8,30.6-30.6V408.1C990,391.2,976.3,377.5,959.4,377.5L959.4,377.5z"/></g>
</svg>