<?xml version="1.0" encoding="utf-8"?>
<!-- Svg Vector Icons : http://www.onlinewebfonts.com/icon -->
<!DOCTYPE svg PUBLIC "-//W3C//DTD SVG 1.1//EN" "http://www.w3.org/Graphics/SVG/1.1/DTD/svg11.dtd">
<svg version="1.1" xmlns="http://www.w3.org/2000/svg" xmlns:xlink="http://www.w3.org/1999/xlink" x="0px" y="0px" viewBox="0 0 1000 1000" enable-background="new 0 0 1000 1000" xml:space="preserve">
<metadata> Svg Vector Icons : http://www.onlinewebfonts.com/icon </metadata>
<g><path d="M640,94.3v138.8c123.6,50.4,210,165.6,210,299.5c0,180.4-156.7,326.7-350,326.7c-193.3,0-350-146.2-350-326.7c0-134,86.4-249.1,210-299.5V94.3C157.6,150.5,10,325.5,10,532.7C10,785.2,229.4,990,500,990c270.6,0,490-204.8,490-457.3C990,325.5,842.4,150.5,640,94.3z M500,532.7c35,0,70-32.7,70-65.3v-392c0-32.7-35-65.3-70-65.3c-35,0-70,32.7-70,65.3v392C430,500,465,532.7,500,532.7z"/></g>
</svg>