<?xml version="1.0" encoding="utf-8"?>
<!-- Svg Vector Icons : http://www.onlinewebfonts.com/icon -->
<!DOCTYPE svg PUBLIC "-//W3C//DTD SVG 1.1//EN" "http://www.w3.org/Graphics/SVG/1.1/DTD/svg11.dtd">
<svg version="1.1" xmlns="http://www.w3.org/2000/svg" xmlns:xlink="http://www.w3.org/1999/xlink" x="0px" y="0px" viewBox="0 0 1000 1000" enable-background="new 0 0 1000 1000" xml:space="preserve">
<metadata> Svg Vector Icons : http://www.onlinewebfonts.com/icon </metadata>
<g><path d="M150,196.7V850c0,77.3,62.7,140,140,140h420c77.3,0,140-62.7,140-140V196.7H150L150,196.7z M336.8,842.9c0,17-10.5,30.7-23.4,30.7H290c-13,0-23.4-13.7-23.4-30.7V320.4c0-16.4,9.8-29.4,22.1-30.4h26c12.3,1,22.1,14,22.1,30.4L336.8,842.9L336.8,842.9z M546.8,842.9c0,17-10.5,30.7-23.4,30.7h-46.9c-12.9,0-23.4-13.7-23.4-30.7V320.4c0-16.4,9.8-29.4,22.1-30.4h49.4c12.3,1,22.1,14,22.1,30.4L546.8,842.9L546.8,842.9z M733.4,320.4v522.5c0,17-10.5,30.7-23.4,30.7h-23.4c-12.9,0-23.4-13.7-23.4-30.7V320.4c0-16.4,9.8-29.4,22.1-30.4h26C723.6,291,733.4,304,733.4,320.4z"/><path d="M850,10H150c-25.8,0-46.7,20.9-46.7,46.7V80c0,25.8,20.9,46.7,46.7,46.7h700c25.8,0,46.7-20.9,46.7-46.7V56.7C896.7,30.9,875.8,10,850,10z"/></g>
</svg>