<?xml version="1.0" encoding="utf-8"?>
<!-- Svg Vector Icons : http://www.onlinewebfonts.com/icon -->
<!DOCTYPE svg PUBLIC "-//W3C//DTD SVG 1.1//EN" "http://www.w3.org/Graphics/SVG/1.1/DTD/svg11.dtd">
<svg version="1.1" xmlns="http://www.w3.org/2000/svg" xmlns:xlink="http://www.w3.org/1999/xlink" x="0px" y="0px" viewBox="0 0 1000 1000" enable-background="new 0 0 1000 1000" xml:space="preserve">
<metadata> Svg Vector Icons : http://www.onlinewebfonts.com/icon </metadata>
<g><g transform="translate(0.000000,511.000000) scale(0.100000,-0.100000)"><path d="M1056.6,1303c-212.6-44-429-164.7-593.7-331.3c-651.1-655-390.7-1725.5,497.9-2033.8c103.4-36.4,164.7-44,363.9-44c210.7,0,256.6,5.7,379.2,49.8c317.9,114.9,570.7,333.2,708.6,612.8C2874.1,485.2,2069.7,1521.3,1056.6,1303z M1583.3,661.4c120.7-57.5,237.5-172.4,296.8-294.9c36.4-78.5,46-126.4,46-258.5c1.9-149.4-3.8-172.4-63.2-283.4C1748-388,1568-495.3,1324.7-495.3c-124.5,0-162.8,9.6-272,63.2c-488.3,239.4-438.6,934.6,80.4,1122.3C1253.9,734.2,1458.8,720.8,1583.3,661.4z"/><path d="M4733.6,1303c-212.6-44-429-164.7-593.7-331.3c-651.1-655-388.8-1727.4,497.9-2033.8c181.9-63.2,528.6-63.2,718.2-1.9c520.9,172.4,871.4,641.6,871.4,1172.1C6227.4,885.5,5499.7,1467.7,4733.6,1303z M5262.2,663.3c118.7-59.4,235.5-174.3,294.9-296.8C5595.4,288,5605,242,5605,107.9c-1.9-147.5-7.7-174.3-65.1-283.4c-72.8-134.1-134.1-191.5-277.7-268.1c-82.3-42.1-122.6-49.8-260.5-49.8c-137.9,0-178.1,7.6-260.5,49.8c-143.6,74.7-204.9,134.1-275.8,266.2c-180,337.1-11.5,752.6,352.4,871.4C4934.7,732.3,5147.3,716.9,5262.2,663.3z"/><path d="M8410.6,1303c-448.1-95.8-835-486.4-928.8-936.5c-164.7-790.9,463.5-1526.3,1264-1476.5c440.5,26.8,831.2,281.5,1020.8,666.5C10228.1,485.2,9423.7,1521.3,8410.6,1303z M8939.2,663.3c118.7-59.4,235.6-174.3,294.9-296.8C9272.4,288,9282,242,9282,107.9c-1.9-147.5-7.7-174.3-65.1-283.4c-72.8-134.1-134.1-191.5-277.7-268.1c-82.3-42.1-122.5-49.8-260.4-51.7c-151.3,0-172.4,5.7-287.3,69c-331.3,181.9-423.2,578.4-206.8,892.4c63.2,93.8,197.2,191.5,310.2,227.9C8611.7,732.3,8824.3,716.9,8939.2,663.3z"/></g></g>
</svg>