<?xml version="1.0" encoding="utf-8"?>
<!-- Svg Vector Icons : http://www.onlinewebfonts.com/icon -->
<!DOCTYPE svg PUBLIC "-//W3C//DTD SVG 1.1//EN" "http://www.w3.org/Graphics/SVG/1.1/DTD/svg11.dtd">
<svg version="1.1" xmlns="http://www.w3.org/2000/svg" xmlns:xlink="http://www.w3.org/1999/xlink" x="0px" y="0px" viewBox="0 0 1000 1000" enable-background="new 0 0 1000 1000" xml:space="preserve">
<metadata> Svg Vector Icons : http://www.onlinewebfonts.com/icon </metadata>
<g><path d="M935.6,118.9H64.4C31.8,118.9,10,97.1,10,64.4S31.8,10,64.4,10h871.1c32.7,0,54.4,21.8,54.4,54.4S968.2,118.9,935.6,118.9z"/><path d="M935.6,990H64.4C31.8,990,10,968.2,10,935.6c0-32.7,21.8-54.4,54.4-54.4h871.1c32.7,0,54.4,21.8,54.4,54.4C990,968.2,968.2,990,935.6,990z"/><path d="M935.6,554.4H64.4C31.8,554.4,10,532.7,10,500s21.8-54.4,54.4-54.4h871.1c32.7,0,54.4,21.8,54.4,54.4S968.2,554.4,935.6,554.4z"/></g>
</svg>