<?xml version="1.0" encoding="utf-8"?>
<!-- Svg Vector Icons : http://www.onlinewebfonts.com/icon -->
<!DOCTYPE svg PUBLIC "-//W3C//DTD SVG 1.1//EN" "http://www.w3.org/Graphics/SVG/1.1/DTD/svg11.dtd">
<svg version="1.1" xmlns="http://www.w3.org/2000/svg" xmlns:xlink="http://www.w3.org/1999/xlink" x="0px" y="0px" viewBox="0 0 1000 1000" enable-background="new 0 0 1000 1000" xml:space="preserve">
<metadata> Svg Vector Icons : http://www.onlinewebfonts.com/icon </metadata>
<g><g><path d="M887.6,357.9V134.6c0-13.3-10.8-24.1-24.1-24.1h-226c-10.1,0-19.2,6.3-22.7,15.9l-18.2,50.2H34.1c-6.4,0-12.5,2.5-17,7.1c-4.5,4.5-7.1,10.6-7.1,17l0.2,665c0,12,8.9,21.9,20.5,23.7l808.7,0.2L990,357.9L887.6,357.9L887.6,357.9z M839.3,357.9H180.9L58.4,791.2l-0.2-566.5h555.2c10.1,0,19.2-6.3,22.7-15.9l18.2-50.2h185V357.9L839.3,357.9z"/></g><g></g><g></g><g></g><g></g><g></g><g></g><g></g><g></g><g></g><g></g><g></g><g></g><g></g><g></g><g></g></g>
</svg>